<?xml version="1.0" encoding="UTF-8" standalone="no"?>
<!DOCTYPE svg PUBLIC "-//W3C//DTD SVG 1.1//EN"
 "http://www.w3.org/Graphics/SVG/1.1/DTD/svg11.dtd">
<!-- Generated by graphviz version 2.38.0 (20140413.2041)
 -->
<!-- Title: models_diagram Pages: 1 -->
<svg width="687pt" height="428pt"
 viewBox="0.00 0.00 687.00 428.00" xmlns="http://www.w3.org/2000/svg" xmlns:xlink="http://www.w3.org/1999/xlink">
<g id="graph0" class="graph" transform="scale(1 1) rotate(0) translate(4 424)">
<title>models_diagram</title>
<polygon fill="white" stroke="none" points="-4,4 -4,-424 683,-424 683,4 -4,4"/>
<!-- Organization -->
<g id="node1" class="node"><title>Organization</title>
<polygon fill="lightblue" stroke="none" points="605,-109 605,-129 679,-129 679,-109 605,-109"/>
<polygon fill="none" stroke="black" points="605,-109 605,-129 679,-129 679,-109 605,-109"/>
<text text-anchor="start" x="612.5" y="-116.8" font-family="Verdana" font-size="9.00">Organization</text>
<polygon fill="none" stroke="black" points="605,-89 605,-109 679,-109 679,-89 605,-89"/>
<text text-anchor="start" x="610" y="-96.8" font-family="Verdana" font-size="9.00">name</text>
<polygon fill="none" stroke="black" points="605,-69 605,-89 679,-89 679,-69 605,-69"/>
<text text-anchor="start" x="610" y="-76.8" font-family="Verdana" font-size="9.00">organizations</text>
</g>
<!-- Structure -->
<g id="node2" class="node"><title>Structure</title>
<polygon fill="lightblue" stroke="none" points="514.5,-120 514.5,-140 569.5,-140 569.5,-120 514.5,-120"/>
<polygon fill="none" stroke="black" points="514.5,-120 514.5,-140 569.5,-140 569.5,-120 514.5,-120"/>
<text text-anchor="start" x="519.5" y="-127.8" font-family="Verdana" font-size="9.00">Structure</text>
<polygon fill="none" stroke="black" points="514.5,-100 514.5,-120 569.5,-120 569.5,-100 514.5,-100"/>
<text text-anchor="start" x="519.5" y="-107.8" font-family="Verdana" font-size="9.00">name</text>
<polygon fill="none" stroke="black" points="514.5,-80 514.5,-100 569.5,-100 569.5,-80 514.5,-80"/>
<text text-anchor="start" x="519.5" y="-87.8" font-family="Verdana" font-size="9.00">exams</text>
<polygon fill="none" stroke="black" points="514.5,-60 514.5,-80 569.5,-80 569.5,-60 514.5,-60"/>
<text text-anchor="start" x="519.5" y="-67.8" font-family="Verdana" font-size="9.00">vaccins</text>
<polygon fill="none" stroke="black" points="514.5,-40 514.5,-60 569.5,-60 569.5,-40 514.5,-40"/>
<text text-anchor="start" x="519.5" y="-47.8" font-family="Verdana" font-size="9.00">patient</text>
<polygon fill="none" stroke="black" points="514.5,-20 514.5,-40 569.5,-40 569.5,-20 514.5,-20"/>
<text text-anchor="start" x="519.5" y="-27.8" font-family="Verdana" font-size="9.00">forms</text>
<polygon fill="none" stroke="black" points="514.5,-0 514.5,-20 569.5,-20 569.5,-0 514.5,-0"/>
<text text-anchor="start" x="519.5" y="-7.8" font-family="Verdana" font-size="9.00">types</text>
</g>
<!-- Structure&#45;&gt;Organization -->
<g id="edge1" class="edge"><title>Structure:organization&#45;&gt;Organization:0</title>
<path fill="none" stroke="black" stroke-dasharray="5,2" d="M569.094,-102.956C576.566,-109.534 585.282,-115.186 594.804,-117.662"/>
<polygon fill="black" stroke="black" points="594.63,-121.169 605,-119 595.54,-114.229 594.63,-121.169"/>
</g>
<!-- Carecenter -->
<g id="node3" class="node"><title>Carecenter</title>
<polygon fill="lightblue" stroke="none" points="410,-209 410,-229 478,-229 478,-209 410,-209"/>
<polygon fill="none" stroke="black" points="410,-209 410,-229 478,-229 478,-209 410,-209"/>
<text text-anchor="start" x="417.5" y="-216.8" font-family="Verdana" font-size="9.00">Carecenter</text>
<polygon fill="none" stroke="black" points="410,-189 410,-209 478,-209 478,-189 410,-189"/>
<text text-anchor="start" x="415" y="-196.8" font-family="Verdana" font-size="9.00">name</text>
<polygon fill="none" stroke="black" points="410,-169 410,-189 478,-189 478,-169 410,-169"/>
<text text-anchor="start" x="415" y="-176.8" font-family="Verdana" font-size="9.00">code</text>
<polygon fill="none" stroke="black" points="410,-149 410,-169 478,-169 478,-149 410,-149"/>
<text text-anchor="start" x="415" y="-156.8" font-family="Verdana" font-size="9.00">organization</text>
<polygon fill="none" stroke="black" points="410,-129 410,-149 478,-149 478,-129 410,-129"/>
<text text-anchor="start" x="415" y="-136.8" font-family="Verdana" font-size="9.00">structure</text>
</g>
<!-- Carecenter&#45;&gt;Organization -->
<g id="edge2" class="edge"><title>Carecenter:organization&#45;&gt;Organization:0</title>
<path fill="none" stroke="black" stroke-dasharray="5,2" d="M478,-159C518.688,-159 531.557,-164.923 569,-149 584.273,-142.505 584.839,-127.311 594.979,-121.407"/>
<polygon fill="black" stroke="black" points="596.094,-124.738 605,-119 594.459,-117.932 596.094,-124.738"/>
</g>
<!-- Carecenter&#45;&gt;Structure -->
<g id="edge3" class="edge"><title>Carecenter:structure&#45;&gt;Structure:0</title>
<path fill="none" stroke="black" stroke-dasharray="5,2" d="M478,-139C490.498,-139 495.257,-133.831 504.006,-131.328"/>
<polygon fill="black" stroke="black" points="504.548,-134.787 514,-130 503.626,-127.848 504.548,-134.787"/>
</g>
<!-- Patient -->
<g id="node4" class="node"><title>Patient</title>
<polygon fill="lightblue" stroke="none" points="312,-269 312,-289 374,-289 374,-269 312,-269"/>
<polygon fill="none" stroke="black" points="312,-269 312,-289 374,-289 374,-269 312,-269"/>
<text text-anchor="start" x="326" y="-276.8" font-family="Verdana" font-size="9.00">Patient</text>
<polygon fill="none" stroke="black" points="312,-249 312,-269 374,-269 374,-249 312,-249"/>
<text text-anchor="start" x="317" y="-256.8" font-family="Verdana" font-size="9.00">key</text>
<polygon fill="none" stroke="black" points="312,-229 312,-249 374,-249 374,-229 312,-229"/>
<text text-anchor="start" x="317" y="-236.8" font-family="Verdana" font-size="9.00">edited</text>
<polygon fill="none" stroke="black" points="312,-209 312,-229 374,-229 374,-209 312,-209"/>
<text text-anchor="start" x="317" y="-216.8" font-family="Verdana" font-size="9.00">carecenter</text>
</g>
<!-- Patient&#45;&gt;Carecenter -->
<g id="edge4" class="edge"><title>Patient:carecenter&#45;&gt;Carecenter:0</title>
<path fill="none" stroke="black" stroke-dasharray="5,2" d="M374,-219C386,-219 391.25,-219 399.875,-219"/>
<polygon fill="black" stroke="black" points="400,-222.5 410,-219 400,-215.5 400,-222.5"/>
</g>
<!-- PatientField -->
<g id="node5" class="node"><title>PatientField</title>
<polygon fill="lightblue" stroke="none" points="211.5,-378 211.5,-398 276.5,-398 276.5,-378 211.5,-378"/>
<polygon fill="none" stroke="black" points="211.5,-378 211.5,-398 276.5,-398 276.5,-378 211.5,-378"/>
<text text-anchor="start" x="216.5" y="-385.8" font-family="Verdana" font-size="9.00">PatientField</text>
<polygon fill="none" stroke="black" points="211.5,-358 211.5,-378 276.5,-378 276.5,-358 211.5,-358"/>
<text text-anchor="start" x="216.5" y="-365.8" font-family="Verdana" font-size="9.00">key</text>
<polygon fill="none" stroke="black" points="211.5,-338 211.5,-358 276.5,-358 276.5,-338 211.5,-338"/>
<text text-anchor="start" x="216.5" y="-345.8" font-family="Verdana" font-size="9.00">value</text>
<polygon fill="none" stroke="black" points="211.5,-318 211.5,-338 276.5,-338 276.5,-318 211.5,-318"/>
<text text-anchor="start" x="216.5" y="-325.8" font-family="Verdana" font-size="9.00">patient</text>
</g>
<!-- PatientField&#45;&gt;Patient -->
<g id="edge5" class="edge"><title>PatientField:patient&#45;&gt;Patient:0</title>
<path fill="none" stroke="black" stroke-dasharray="5,2" d="M276,-328C298.801,-328 289.516,-293.116 302.29,-282.215"/>
<polygon fill="black" stroke="black" points="303.607,-285.466 312,-279 301.407,-278.821 303.607,-285.466"/>
</g>
<!-- Admission -->
<g id="node6" class="node"><title>Admission</title>
<polygon fill="lightblue" stroke="none" points="214.5,-280 214.5,-300 272.5,-300 272.5,-280 214.5,-280"/>
<polygon fill="none" stroke="black" points="214.5,-280 214.5,-300 272.5,-300 272.5,-280 214.5,-280"/>
<text text-anchor="start" x="219.5" y="-287.8" font-family="Verdana" font-size="9.00">Admission</text>
<polygon fill="none" stroke="black" points="214.5,-260 214.5,-280 272.5,-280 272.5,-260 214.5,-260"/>
<text text-anchor="start" x="219.5" y="-267.8" font-family="Verdana" font-size="9.00">enter</text>
<polygon fill="none" stroke="black" points="214.5,-240 214.5,-260 272.5,-260 272.5,-240 214.5,-240"/>
<text text-anchor="start" x="219.5" y="-247.8" font-family="Verdana" font-size="9.00">exit</text>
<polygon fill="none" stroke="black" points="214.5,-220 214.5,-240 272.5,-240 272.5,-220 214.5,-220"/>
<text text-anchor="start" x="219.5" y="-227.8" font-family="Verdana" font-size="9.00">patient</text>
</g>
<!-- Admission&#45;&gt;Patient -->
<g id="edge6" class="edge"><title>Admission:patient&#45;&gt;Patient:0</title>
<path fill="none" stroke="black" stroke-dasharray="5,2" d="M273.5,-230C297.085,-230 288.336,-265.533 302.322,-276.082"/>
<polygon fill="black" stroke="black" points="301.415,-279.464 312,-279 303.436,-272.762 301.415,-279.464"/>
</g>
<!-- Consultation -->
<g id="node7" class="node"><title>Consultation</title>
<polygon fill="lightblue" stroke="none" points="105,-340 105,-360 175,-360 175,-340 105,-340"/>
<polygon fill="none" stroke="black" points="105,-340 105,-360 175,-360 175,-340 105,-340"/>
<text text-anchor="start" x="110" y="-347.8" font-family="Verdana" font-size="9.00">Consultation</text>
<polygon fill="none" stroke="black" points="105,-320 105,-340 175,-340 175,-320 105,-320"/>
<text text-anchor="start" x="110" y="-327.8" font-family="Verdana" font-size="9.00">enter</text>
<polygon fill="none" stroke="black" points="105,-300 105,-320 175,-320 175,-300 105,-300"/>
<text text-anchor="start" x="110" y="-307.8" font-family="Verdana" font-size="9.00">exit</text>
<polygon fill="none" stroke="black" points="105,-280 105,-300 175,-300 175,-280 105,-280"/>
<text text-anchor="start" x="110" y="-287.8" font-family="Verdana" font-size="9.00">admission</text>
</g>
<!-- Consultation&#45;&gt;Admission -->
<g id="edge8" class="edge"><title>Consultation:admission&#45;&gt;Admission:0</title>
<path fill="none" stroke="black" stroke-dasharray="5,2" d="M175,-290C188.101,-290 193.679,-290 203.253,-290"/>
<polygon fill="black" stroke="black" points="203.5,-293.5 213.5,-290 203.5,-286.5 203.5,-293.5"/>
</g>
<!-- Data -->
<g id="node8" class="node"><title>Data</title>
<polygon fill="lightblue" stroke="none" points="0.5,-400 0.5,-420 69.5,-420 69.5,-400 0.5,-400"/>
<polygon fill="none" stroke="black" points="0.5,-400 0.5,-420 69.5,-420 69.5,-400 0.5,-400"/>
<text text-anchor="start" x="23.5" y="-407.8" font-family="Verdana" font-size="9.00">Data</text>
<polygon fill="none" stroke="black" points="0.5,-380 0.5,-400 69.5,-400 69.5,-380 0.5,-380"/>
<text text-anchor="start" x="5.5" y="-387.8" font-family="Verdana" font-size="9.00">key</text>
<polygon fill="none" stroke="black" points="0.5,-360 0.5,-380 69.5,-380 69.5,-360 0.5,-360"/>
<text text-anchor="start" x="5.5" y="-367.8" font-family="Verdana" font-size="9.00">value</text>
<polygon fill="none" stroke="black" points="0.5,-340 0.5,-360 69.5,-360 69.5,-340 0.5,-340"/>
<text text-anchor="start" x="5.5" y="-347.8" font-family="Verdana" font-size="9.00">consultation</text>
</g>
<!-- Data&#45;&gt;Consultation -->
<g id="edge7" class="edge"><title>Data:consultation&#45;&gt;Consultation:0</title>
<path fill="none" stroke="black" stroke-dasharray="5,2" d="M69,-350C81,-350 86.25,-350 94.875,-350"/>
<polygon fill="black" stroke="black" points="95,-353.5 105,-350 95,-346.5 95,-353.5"/>
</g>
</g>
</svg>
