<svg xmlns="http://www.w3.org/2000/svg" version="1.1" xmlns:xlink="http://www.w3.org/1999/xlink" viewBox="-100 -100 200 200" preserveAspectRatio="xMinYMax">
    <symbol id="spear" viewBox="-20 -80 40 130" width="40" height="130">
        <path d="M0,45 L0,-50" stroke="#420" stroke-width="3"/>
        <path d="M1,45 L1,-50" stroke="#642" stroke-width="1"/>
        <path d="M-1,45 L-1,-50" stroke="#210" stroke-width="1"/>
        <path d="M0,-50 l4,-5 l-4,-10 Z" fill="#fc8" stroke="none"/>
        <path d="M0,-50 l-4,-5 l4,-10 Z" fill="#ea6" stroke="none"/>
        <path d="M-2,-50 h4 M-2,-52 h4 M-2,-48 h4" fill="none" stroke="#520" stroke-width="2" stroke-linecap="round"/>
        <path d="M0,-50 h2 M0,-52 h2 M0,-48 h2" fill="none" stroke="#630" stroke-width="2" stroke-linecap="round"/>
    </symbol>
    <g transform="translate(-20,-80)">
        <use href="#spear" x="0" y="0" width="40" height="130" transform="rotate(20 0 0)">
            <animateTransform attributeName="transform" attributeType="XML" type="rotate" values="20 20 80;30 20 80;20 20 80" dur="6s" repeatCount="indefinite"/>
        </use>
    </g>
    <g transform="translate(-20,-80)">
        <use href="#spear" x="0" y="0" width="40" height="130" transform="rotate(20 0 0)">
            <animateTransform attributeName="transform" attributeType="XML" type="rotate" values="20 20 80;45 20 80;20 20 80" dur="6s" repeatCount="indefinite"/>
        </use>
    </g>
    <g transform="translate(-20,-80)">
        <use href="#spear" x="0" y="0" width="40" height="130" transform="rotate(20 0 0)">
            <animateTransform attributeName="transform" attributeType="XML" type="rotate" values="-20 20 80;-30 20 80;-20 20 80" dur="6s" repeatCount="indefinite"/>
        </use>
    </g>
    <g transform="translate(-20,-80)">
        <use href="#spear" x="0" y="0" width="40" height="130" transform="rotate(20 0 0)">
            <animateTransform attributeName="transform" attributeType="XML" type="rotate" values="-20 20 80;-45 20 80;-20 20 80" dur="6s" repeatCount="indefinite"/>
        </use>
    </g>
    <clippath id="shield-path">
        <ellipse cx="0" cy="0" rx="20" ry="40"/>
    </clippath>
    <ellipse cx="0" cy="0" rx="20" ry="40" fill="#420"/>
    <g clip-path="url(#shield-path)">
        <path d="M-40,-40 Q0,-40,0,80 Q0,-40,40,-40 Z" fill="#630" stroke="#fb7" stroke-width="1"/>
        <ellipse cx="0" cy="50" rx="20" ry="30" fill="#630" stroke="#fb7" stroke-width="1"/>
        <ellipse cx="0" cy="50" rx="17" ry="23" fill="#420" stroke="#fb7" stroke-width="1"/>
    </g>
    <ellipse cx="-10" cy="0" rx="5" ry="7" fill="#420" stroke="#fb7" stroke-width="1"/>
    <ellipse cx="-10" cy="0" rx="5" ry="3" fill="#630" stroke="#fb7" stroke-width="1"/>
    <ellipse cx="10" cy="0" rx="5" ry="7" fill="#420" stroke="#fb7" stroke-width="1"/>
    <ellipse cx="10" cy="0" rx="5" ry="3" fill="#630" stroke="#fb7" stroke-width="1"/>
    <ellipse cx="0" cy="0" rx="20" ry="40" fill="none" stroke="#fb7" stroke-width="1"/>
    <g clip-path="url(#shield-path)">
        <ellipse cx="-20" cy="55" rx="30" ry="80" fill="#000" opacity="0.2"/>
    </g>
</svg>
